<svg width="350" height="350" viewBox="0 0 350 350" fill="none" xmlns="http://www.w3.org/2000/svg">
<rect width="350" height="350"/>
<rect width="350" height="350" rx="94" fill="#0A0A11"/>
<path fill-rule="evenodd" clip-rule="evenodd" d="M88.698 138H26V212H88.698C111.142 212 119.383 198.334 119.383 175C119.383 151.663 111.142 138 88.698 138ZM86.9572 201.64H63.725L36.3739 201.61L36.3444 148.36H86.8363C103.123 148.36 109.012 158.069 109.012 175C109.012 191.931 103.241 201.64 86.9572 201.64" fill="white"/>
<path fill-rule="evenodd" clip-rule="evenodd" d="M217.413 211.858C216.336 211.858 215.254 211.52 214.33 210.822L188.994 191.609C188.46 191.205 188.011 190.699 187.673 190.121C187.335 189.542 187.114 188.903 187.023 188.238C186.933 187.574 186.974 186.898 187.144 186.25C187.315 185.601 187.612 184.993 188.018 184.46C188.839 183.383 190.053 182.675 191.393 182.492C192.733 182.309 194.091 182.665 195.17 183.483L220.505 202.697C222.751 204.399 223.19 207.598 221.485 209.842C220.482 211.162 218.956 211.858 217.413 211.858V211.858ZM159.427 167.825C158.353 167.825 157.273 167.488 156.35 166.789L130.651 147.362C130.117 146.96 129.668 146.455 129.329 145.877C128.99 145.3 128.769 144.661 128.677 143.997C128.586 143.333 128.626 142.658 128.795 142.009C128.965 141.361 129.261 140.753 129.666 140.22C130.485 139.14 131.698 138.43 133.038 138.244C134.379 138.059 135.737 138.414 136.818 139.231L162.516 158.658C164.765 160.357 165.207 163.557 163.505 165.8C163.028 166.431 162.412 166.942 161.705 167.293C160.998 167.644 160.219 167.826 159.43 167.825H159.427ZM191.921 167.881C191.129 167.883 190.348 167.7 189.638 167.347C188.929 166.993 188.312 166.479 187.835 165.845C187.432 165.31 187.139 164.7 186.972 164.05C186.805 163.401 186.768 162.725 186.862 162.061C186.957 161.397 187.181 160.759 187.523 160.182C187.865 159.606 188.316 159.103 188.853 158.702L214.537 139.456C215.62 138.644 216.981 138.295 218.321 138.485C219.66 138.676 220.87 139.391 221.686 140.475C223.379 142.727 222.922 145.924 220.665 147.614L194.981 166.86C194.098 167.524 193.024 167.882 191.921 167.881V167.881ZM133.557 211.618C132.765 211.62 131.984 211.437 131.275 211.084C130.565 210.73 129.948 210.216 129.471 209.582C129.068 209.046 128.775 208.436 128.609 207.787C128.442 207.137 128.405 206.461 128.5 205.797C128.595 205.133 128.82 204.495 129.161 203.919C129.503 203.342 129.955 202.84 130.492 202.439L156.368 183.048C157.451 182.236 158.811 181.887 160.15 182.078C161.489 182.268 162.699 182.984 163.514 184.066C163.916 184.602 164.209 185.211 164.375 185.86C164.542 186.509 164.579 187.185 164.485 187.849C164.39 188.512 164.166 189.15 163.824 189.726C163.483 190.303 163.031 190.805 162.496 191.206L136.62 210.6C135.736 211.263 134.661 211.621 133.557 211.618V211.618ZM293.315 138H261.302C238.858 138 230.617 151.663 230.617 175C230.617 198.334 238.858 212 261.302 212H293.315C315.759 212 324 198.334 324 175C324 151.663 315.759 138 293.315 138ZM291.574 201.847H263.043C246.756 201.847 240.775 191.931 240.775 175C240.775 158.069 246.756 148.15 263.043 148.15H291.568C307.855 148.15 313.836 158.066 313.836 175C313.836 191.931 307.855 201.847 291.568 201.847" fill="white"/>
</svg>
